<?xml version="1.0" encoding="utf-8"?>
<!-- Generator: Adobe Illustrator 16.0.0, SVG Export Plug-In . SVG Version: 6.00 Build 0)  -->
<!DOCTYPE svg PUBLIC "-//W3C//DTD SVG 1.1//EN" "http://www.w3.org/Graphics/SVG/1.1/DTD/svg11.dtd">
<svg version="1.1" xmlns="http://www.w3.org/2000/svg" xmlns:xlink="http://www.w3.org/1999/xlink" x="0px" y="0px" width="280px"
	 height="86.721px" viewBox="0 0 280 86.721" enable-background="new 0 0 280 86.721" xml:space="preserve">
<g id="base_colors" display="none">
	<rect x="-158.25" y="-400.113" display="inline" fill="#4D3B15" width="82" height="82"/>
	<rect x="-29.615" y="-400.113" display="inline" fill="#437738" width="82" height="82"/>
	<rect x="99" y="-400.113" display="inline" fill="#A7CD38" width="82" height="82"/>
	<rect x="227.613" y="-400.113" display="inline" fill="#FBFADC" width="82" height="82"/>
	<rect x="356.229" y="-400.113" display="inline" fill="#A51E22" width="82" height="82"/>
</g>
<g id="background" display="none">
	<rect x="-160" y="-250.8" display="inline" fill="#FBFADC" width="600" height="600"/>
</g>
<g id="logo_1_-_text" display="none">
	<text transform="matrix(1 0 0 1 12.4268 42.6504)" display="inline" font-family="'HoboStd'" font-size="50">Pinocchio’s</text>
	<text transform="matrix(1 0 0 1 47.9458 77.2695)" display="inline" font-family="'HoboStd'" font-size="30">Pizza &amp; Subs</text>
	<circle display="inline" cx="35" cy="64.2" r="5"/>
	<circle display="inline" cx="20" cy="64.2" r="5"/>
	<circle display="inline" cx="5" cy="64.2" r="5"/>
	<circle display="inline" cx="275" cy="64.2" r="5"/>
	<circle display="inline" cx="260" cy="64.2" r="5"/>
	<circle display="inline" cx="245" cy="64.2" r="5"/>
</g>
<g id="logo_1a">
	<path fill="#4D3B15" d="M33.728,1.047c8.201,0,9.901,5.95,9.901,8.9c0,13.401-19.551,15.351-19.551,21.651
		c0,4.2,1.75,10.301,1.75,10.6c0,0.602-1.15,0.451-1.5,0.451h-6.65c-1.25,0-2.75,0.949-2.75-17.802c0-24.701,2.6-23.801,3.45-23.801
		H33.728z M35.528,11.548c0-3.45-3-4.6-6-4.6c-3.6,0-6.55,0.55-6.5,12.051c0,1.2,0.1,2.3,1.55,2.3
		C27.178,21.299,35.528,15.148,35.528,11.548z"/>
	<path fill="#4D3B15" d="M48.577,42.65c-2.45,0-2.65,1.049-2.65-16.551c0-17.101,0.8-15.451,2.45-15.451h2.75
		c2.1,0,2.15,0.15,2.15,0.75c0,1.85-0.6,3.7-0.6,9.15c0,12.601,1.95,20.352,1.95,20.802c0,1.599-1.5,1.3-2.65,1.3H48.577z
		 M46.477,3.448c0-2.15,1.85-3.451,3.85-3.451c2,0,3.851,1.3,3.851,3.451c0,2.15-1.85,3.3-3.851,3.3
		C48.327,6.748,46.477,5.598,46.477,3.448z"/>
	<path fill="#4D3B15" d="M74.677,42.65c-0.65,0-1.75,0.15-1.75-0.8c0-0.5,2.55-7.151,2.55-17.301c0-3.55-0.3-8-3.7-8
		c-1.9,0-5.8,1.25-5.8,11.151c0,6,1.45,13.701,1.45,14.301c0,0.699-0.85,0.65-1.35,0.65h-4.25c-1.85,0-2.6,0.85-2.6-12.351
		c0-22.651,1.75-21.251,5.6-21.251c1.75,0,3.55-0.25,3.55,0.9c0,0.5-0.45,1.1-0.45,1.8c0,0.5,0.25,0.95,0.75,0.95
		c0.85,0,3.15-2.05,6.351-2.05c1.4,0,7.201,0.2,7.201,13.351c0,19.652-1.55,18.652-3.25,18.652H74.677z"/>
	<path fill="#4D3B15" d="M85.576,26.599c0-8.051,3.85-16.701,12.55-16.701c8.701,0,12.551,8.65,12.551,16.701
		c0,11.751-6.8,16.801-12.551,16.801C92.376,43.4,85.576,38.35,85.576,26.599z M104.477,25.349c0-3.95-1.4-9.55-6.351-9.55
		c-4.95,0-6.35,5.6-6.35,9.55c0,4,1.3,9.701,6.35,9.701C103.177,35.049,104.477,29.349,104.477,25.349z"/>
	<path fill="#4D3B15" d="M112.775,28.249c0-8.601,4.35-18.351,14.201-18.351c4.35,0,7.5,2.35,7.5,5.2c0,1.5-1.1,4.4-2.95,4.4
		c-1.15,0-0.95-3.7-5-3.7c-5.15,0-7,6.8-7,11c0,4.851,2.3,8.901,7.051,8.901c5.4,0,6.65-4.951,7.1-4.951c0.25,0,0.75,0.9,0.75,2.95
		c0,6-3.95,9.701-9.851,9.701C116.275,43.4,112.775,35.549,112.775,28.249z"/>
	<path fill="#4D3B15" d="M137.175,28.249c0-8.601,4.351-18.351,14.2-18.351c4.351,0,7.501,2.35,7.501,5.2c0,1.5-1.101,4.4-2.95,4.4
		c-1.15,0-0.95-3.7-5-3.7c-5.15,0-7.001,6.8-7.001,11c0,4.851,2.301,8.901,7.051,8.901c5.4,0,6.65-4.951,7.101-4.951
		c0.25,0,0.75,0.9,0.75,2.95c0,6-3.95,9.701-9.851,9.701C140.675,43.4,137.175,35.549,137.175,28.249z"/>
	<path fill="#4D3B15" d="M171.325-0.003c0.45,0,0.8,0.55,0.8,1.05c0,0.7-1.9,5.601-1.9,9.601c0,0.6,0,1.55,0.851,1.55
		c0.399,0,1.2-0.45,2.3-1.1c1.15-0.6,2.551-1.2,4.2-1.2c4.551,0,7.9,3.25,7.9,15.301c0,4.8-0.699,17.452-2.25,17.452h-5.2
		c-0.45,0-1.8,0.15-1.8-0.65c0-0.35,2.5-10.251,2.5-16.901c0-7.75-1.3-9.3-3.75-9.3c-5.101,0-5.2,7.8-5.2,11.351
		c0,10.001,1.1,13.251,1.1,14.701c0,0.8-0.95,0.8-1.45,0.8h-4.95c-1.45,0-1.45,1.699-1.45-20.502c0-4,0.101-22.151,2.851-22.151
		H171.325z"/>
	<path fill="#4D3B15" d="M192.674,42.65c-2.45,0-2.65,1.049-2.65-16.551c0-17.101,0.801-15.451,2.45-15.451h2.75
		c2.101,0,2.15,0.15,2.15,0.75c0,1.85-0.6,3.7-0.6,9.15c0,12.601,1.95,20.352,1.95,20.802c0,1.599-1.5,1.3-2.65,1.3H192.674z
		 M190.574,3.448c0-2.15,1.85-3.451,3.85-3.451s3.851,1.3,3.851,3.451c0,2.15-1.851,3.3-3.851,3.3S190.574,5.598,190.574,3.448z"/>
	<path fill="#4D3B15" d="M202.073,26.599c0-8.051,3.851-16.701,12.551-16.701c8.701,0,12.551,8.65,12.551,16.701
		c0,11.751-6.8,16.801-12.551,16.801C208.874,43.4,202.073,38.35,202.073,26.599z M220.975,25.349c0-3.95-1.4-9.55-6.351-9.55
		s-6.351,5.6-6.351,9.55c0,4,1.301,9.701,6.351,9.701C219.675,35.049,220.975,29.349,220.975,25.349z"/>
	<path fill="#4D3B15" d="M235.873,1.248c0.55-0.4,1.15-0.95,1.9-0.95c2.8,0,4.95,3.05,4.95,5.65c0,5.75-6.101,8.15-9.001,8.15
		c-0.149,0-0.399-0.1-0.399-0.25c0-0.2,1.3-1.75,1.3-3.8c0-4.2-3.9-4-3.9-4.5c0-0.25,0.851-0.85,1-0.95L235.873,1.248z"/>
	<path fill="#4D3B15" d="M243.673,34.449c0-2.35,1.2-5.35,1.6-5.35c0.25,0,1.501,7.55,8.601,7.55c2.051,0,4.45-1.05,4.45-3.6
		c0-5.15-13.5-3.8-13.5-13.751c0-6.1,4.9-9.4,10.3-9.4c6.251,0,9.701,3.75,9.701,4.75c0,0.95-2.801,5-3.95,5
		c-1.3,0-1.601-3.85-6.2-3.85c-1.551,0-3.65,0.7-3.65,2.2c0,5.15,14.601,5.05,14.601,15.201c0,6.5-5.4,10.201-11.4,10.201
		C248.923,43.4,243.673,40.299,243.673,34.449z"/>
	<path fill="#4D3B15" d="M60.725,52.311c4.92,0,5.94,3.57,5.94,5.34c0,8.041-11.729,9.211-11.729,12.99c0,2.52,1.05,6.18,1.05,6.359
		c0,0.359-0.69,0.27-0.9,0.27h-3.99c-0.75,0-1.65,0.57-1.65-10.68c0-14.818,1.56-14.279,2.07-14.279H60.725z M61.805,58.611
		c0-2.07-1.8-2.76-3.6-2.76c-2.16,0-3.93,0.33-3.9,7.229c0,0.721,0.06,1.381,0.93,1.381C56.795,64.461,61.805,60.771,61.805,58.611z
		"/>
	<path fill="#4D3B15" d="M69.635,77.27c-1.47,0-1.59,0.631-1.59-9.93c0-10.26,0.48-9.27,1.47-9.27h1.65c1.26,0,1.29,0.09,1.29,0.451
		c0,1.109-0.36,2.219-0.36,5.488c0,7.561,1.17,12.211,1.17,12.48c0,0.959-0.9,0.779-1.59,0.779H69.635z M68.375,53.75
		c0-1.289,1.11-2.068,2.31-2.068c1.2,0,2.31,0.779,2.31,2.068c0,1.291-1.11,1.98-2.31,1.98C69.485,55.73,68.375,55.041,68.375,53.75
		z"/>
	<path fill="#4D3B15" d="M76.925,77.27c-0.78,0-1.5,0.15-1.5-0.84c0-7.229,7.17-13.35,7.17-14.219c0-0.57-0.99-0.6-1.35-0.6
		c-2.55,0-3.15,0.779-3.69,0.779c-0.63,0-1.26-3.57-1.26-3.93c0-0.51,0.93-0.391,1.23-0.391h9.03c0.84,0,1.32-0.119,1.32,0.93
		c0,0.361-0.03,2.971-0.36,3.57c-0.99,1.859-6.75,7.5-6.75,10.5c0,0.6,0.36,0.66,1.23,0.66c3.51,0,3.93-0.93,4.41-0.93
		c0.54,0,1.32,3.568,1.32,4.049c0,0.451-0.9,0.42-1.17,0.42H76.925z"/>
	<path fill="#4D3B15" d="M90.935,77.27c-0.78,0-1.5,0.15-1.5-0.84c0-7.229,7.17-13.35,7.17-14.219c0-0.57-0.99-0.6-1.35-0.6
		c-2.55,0-3.15,0.779-3.69,0.779c-0.63,0-1.26-3.57-1.26-3.93c0-0.51,0.93-0.391,1.23-0.391h9.03c0.84,0,1.32-0.119,1.32,0.93
		c0,0.361-0.03,2.971-0.36,3.57c-0.99,1.859-6.75,7.5-6.75,10.5c0,0.6,0.36,0.66,1.23,0.66c3.51,0,3.93-0.93,4.41-0.93
		c0.54,0,1.32,3.568,1.32,4.049c0,0.451-0.9,0.42-1.17,0.42H90.935z"/>
	<path fill="#4D3B15" d="M110.735,64.791c0.87-0.15,1.56-0.301,1.56-1.291c0-1.529-1.59-2.34-2.909-2.34
		c-3.061,0-2.61,2.58-3.271,2.58c-0.96,0-2.01-1.17-2.01-2.459c0-2.221,2.49-3.66,5.25-3.66c0.96,0,5.069-0.031,6.6,4.17
		c0.63,1.74,0.689,10.619,0.689,11.67c0,1.318,0.24,2.1,0.24,3.119c0,0.631-2.819,0.689-5.489,0.689c-7.23,0-7.74-3.719-7.74-5.52
		C103.655,67.971,107.375,65.361,110.735,64.791z M112.594,70.041c0-1.051,0.181-2.311-1.26-2.311c-1.77,0-3.63,1.5-3.63,3.33
		c0,1.68,1.47,2.67,3.061,2.67c1.77,0,1.829-0.9,1.829-2.371V70.041z"/>
	<path fill="#4D3B15" d="M128.464,71.9c0-5.58,5.069-7.23,5.069-8.551c0-0.93-1.949-2.76-1.949-5.488c0-1.891,1.08-6,7.47-6
		c4.559,0,6.03,3.359,6.03,5.07c0,4.439-4.65,5.818-4.65,7.529c0,0.809,1.32,2.969,2.22,3.119c0.959,0,2.76-4.559,8.398-4.559
		c1.68,0,3.15,1.049,3.15,2.789c0,0.689-0.57,1.92-1.26,1.92c-0.631,0-1.199-0.869-2.311-0.869c-2.398,0-5.068,3.629-5.068,4.289
		s1.59,1.23,2.398,1.23c2.041,0,3.121-1.32,3.42-1.32c0.18,0,0.18,0.27,0.18,0.51c0,3.24-1.859,6.15-5.068,6.15
		c-2.73,0-3.66-2.16-4.801-2.16c-1.379,0-2.429,2.16-6.719,2.16C130.714,77.721,128.464,75.291,128.464,71.9z M133.324,70.85
		c0,1.5,1.471,2.49,2.73,2.49c1.08,0,2.97-0.75,2.97-1.59c0-0.48-2.46-4.32-3.21-4.32C134.764,67.43,133.324,69.41,133.324,70.85z
		 M140.704,57.352c0-1.291-0.779-1.951-2.069-1.951s-2.19,0.721-2.19,2.041c0,0.869,0.87,2.969,1.89,2.969
		C139.114,60.41,140.704,58.521,140.704,57.352z"/>
	<path fill="#4D3B15" d="M174.004,55.91c-1.5,0-3.42,0.75-3.42,2.49c0,2.16,2.969,3,4.619,3.57c6.301,2.1,7.59,5.129,7.59,7.98
		c0,3.479-2.49,7.77-8.82,7.77c-4.26,0-8.578-2.281-8.578-7.051c0-2.549,1.529-4.049,1.83-4.049c0.51,0,0,6.09,6.449,6.09
		c2.279,0,4.26-0.99,4.26-2.852c0-2.189-2.701-3.09-4.439-3.629c-6.57-2.039-7.291-5.01-7.291-7.561c0-2.52,1.711-6.809,7.801-6.809
		c4.35,0,7.439,2.311,7.439,3.18c0,0.84-1.561,3.57-2.4,3.57C178.293,58.611,177.123,55.91,174.004,55.91z"/>
	<path fill="#4D3B15" d="M197.793,58.07c1.26,0,1.291,6.301,1.291,9.15c0,11.01-0.781,10.5-2.941,10.5
		c-3.148,0-0.75-1.68-2.459-1.68c-0.27,0-0.961,0.629-1.5,0.988c-0.541,0.33-1.23,0.691-2.221,0.691
		c-2.49,0-4.799-1.561-4.799-10.141c0-0.51,0.209-9.51,1.469-9.51h2.76c0.391,0,1.201-0.15,1.201,0.451
		c0,0.449-1.381,3.449-1.381,9.119c0,1.68-0.029,6.24,2.551,6.24c0.99,0,3.27-0.301,3.27-6.75c0-3.6-1.051-8.221-1.051-8.699
		c0-0.391,0.691-0.361,1.021-0.361H197.793z"/>
	<path fill="#4D3B15" d="M205.984,51.682c0.359,0,1.08,0,1.08,0.66c0,0.238-0.9,3.238-0.9,5.01c0,0.479,0.09,0.959,0.66,0.959
		c0.33,0,0.75-0.15,1.23-0.33c0.51-0.15,1.109-0.359,1.74-0.359c2.549,0,6.119,2.279,6.119,8.609c0,3.449-0.871,6.209-3.061,8.699
		c-0.869,1.02-2.459,2.34-4.74,2.34h-5.309c-1.051,0-0.93-10.049-0.93-10.738c0-1.41-0.121-14.85,1.229-14.85H205.984z
		 M211.863,66.59c0-4.92-2.129-6.119-3.389-6.119c-2.131,0-2.551,1.051-2.551,5.43c0,6.48,1.529,6.359,2.311,6.359
		C211.174,72.26,211.863,68.811,211.863,66.59z"/>
	<path fill="#4D3B15" d="M217.713,72.35c0-1.41,0.721-3.209,0.961-3.209c0.15,0,0.9,4.529,5.16,4.529c1.229,0,2.67-0.629,2.67-2.16
		c0-3.09-8.1-2.279-8.1-8.25c0-3.658,2.939-5.639,6.18-5.639c3.748,0,5.818,2.25,5.818,2.85c0,0.57-1.68,3-2.369,3
		c-0.779,0-0.961-2.311-3.721-2.311c-0.93,0-2.189,0.42-2.189,1.32c0,3.09,8.76,3.029,8.76,9.119c0,3.9-3.24,6.121-6.84,6.121
		C220.863,77.721,217.713,75.859,217.713,72.35z"/>
	<circle fill="#A51E22" cx="35" cy="64.2" r="5"/>
	<circle fill="#FFFFFF" cx="20" cy="64.2" r="5"/>
	<circle fill="#437738" cx="5" cy="64.2" r="5"/>
	<circle fill="#A51E22" cx="275" cy="64.2" r="5"/>
	<circle fill="#FFFFFF" cx="260" cy="64.2" r="5"/>
	<circle fill="#437738" cx="245" cy="64.2" r="5"/>
</g>
<g id="logo_1a_-_outline" display="none">
	<text transform="matrix(1 0 0 1 12.4268 42.6504)" display="inline" font-family="'HoboStd'" font-size="50">Pinocchio’s</text>
	<text transform="matrix(1 0 0 1 47.9458 77.2695)" display="inline" font-family="'HoboStd'" font-size="30">Pizza &amp; Subs</text>
	<circle display="inline" cx="35" cy="64.2" r="5"/>
	<circle display="inline" cx="20" cy="64.2" r="5"/>
	<circle display="inline" cx="5" cy="64.2" r="5"/>
	<circle display="inline" cx="275" cy="64.2" r="5"/>
	<circle display="inline" cx="260" cy="64.2" r="5"/>
	<circle display="inline" cx="245" cy="64.2" r="5"/>
</g>
</svg>
