<svg xmlns="http://www.w3.org/2000/svg" xmlns:xlink="http://www.w3.org/1999/xlink" version="1.1" x="0px" y="0px" width="280px" height="86px" viewBox="0 0 280 86.72100067138672" enable-background="new 0 0 280 86.721" xml:space="preserve"  preserveAspectRatio="xMidYMid meet"><rect id="svgEditorBackground" x="0" y="0" width="280" height="86.72100067138672" style="fill:none;stroke:none;"/>
<g id="base_colors" display="none">
	<rect x="-158.25" y="-400.113" display="inline" fill="#4D3B15" width="82" height="82"/>
	<rect x="-29.615" y="-400.113" display="inline" fill="#437738" width="82" height="82"/>
	<rect x="99" y="-400.113" display="inline" fill="#A7CD38" width="82" height="82"/>
	<rect x="227.613" y="-400.113" display="inline" fill="#FBFADC" width="82" height="82"/>
	<rect x="356.229" y="-400.113" display="inline" fill="#A51E22" width="82" height="82"/>
</g>
<g id="background" display="none">
	<rect x="-160" y="-250.8" display="inline" fill="#FBFADC" width="600" height="600"/>
</g>
<g id="logo_1_-_text" display="none">
	<text transform="matrix(1 0 0 1 12.4268 42.6504)" display="inline" font-family="'HoboStd'" font-size="50">Pinocchio’s</text>
	<text transform="matrix(1 0 0 1 47.9458 77.2695)" display="inline" font-family="'HoboStd'" font-size="30">Pizza &amp; Subs</text>
	<circle display="inline" cx="35" cy="64.2" r="5"/>
	<circle display="inline" cx="20" cy="64.2" r="5"/>
	<circle display="inline" cx="5" cy="64.2" r="5"/>
	<circle display="inline" cx="275" cy="64.2" r="5"/>
	<circle display="inline" cx="260" cy="64.2" r="5"/>
	<circle display="inline" cx="245" cy="64.2" r="5"/>
</g>
<g id="logo_1a">
	<path fill="#4D3B15" d="M68.56159810519401,4.596920826007038c8.200999999999993,0,9.90100000000001,5.9499999999999975,9.90100000000001,8.900000000000002c0,13.400999999999991,-19.551000000000016,15.350999999999994,-19.551000000000016,21.65099999999999c0,4.200000000000003,1.75,10.301000000000002,1.75,10.600000000000009c0,0.6019999999999968,-1.1499999999999773,0.4509999999999934,-1.5,0.4509999999999934h-6.6499999999999915c-1.249999999999993,0,-2.749999999999993,0.9489999999999981,-2.749999999999993,-17.802c0,-24.701,2.6000000000000014,-23.801,3.4499999999999886,-23.801h15.350000000000001ZM70.361598105194,15.097920826007034c0,-3.450000000000003,-3,-4.600000000000001,-6,-4.600000000000001c-3.6000000000000085,0,-6.549999999999997,0.5500000000000007,-6.5,12.051000000000002c0,1.1999999999999993,0.10000000000000853,2.3000000000000007,1.5499999999999972,2.3000000000000007c2.5999999999999943,-3.552713678800501e-15,10.950000000000003,-6.150999999999996,10.950000000000003,-9.751000000000001Z"/>
	
	
	<path fill="#4D3B15" d="M205.60769792936279,27.930220309752638c0,-8.050999999999998,3.8499999999999943,-16.701,12.549999999999983,-16.701c8.701000000000022,0,12.551000000000016,8.650000000000002,11.220000000000027,19.807c-14.42100000000002,0.8790000000000049,7.621999999999986,11.475999999999999,-11.220000000000027,13.695c-5.75,0,-12.549999999999983,-5.049999999999997,-12.549999999999983,-16.801ZM224.5086979293628,26.680220309752638c0,-0.3999999999999986,-1.3999999999999773,-9.55,-6.350999999999999,-9.55c-4.950000000000017,0,-6.349999999999994,5.600000000000001,-6.349999999999994,9.55c0,4,1.3000000000000114,9.700999999999997,6.349999999999994,9.700999999999997c5.050999999999988,-0.09999999999999432,-8.736000000000018,-9.472999999999999,6.350999999999999,-9.701Z"/>
	<path fill="#4D3B15" d="M85.2631135984455,27.58338984512368c0,-8.601000000000003,4.349999999999994,-18.351,14.200999999999993,-18.351c4.349999999999994,0,7.5,2.349999999999996,7.5,5.199999999999999c0,1.5,10.659999999999997,27.253,1.0440000000000111,28.14c-3.4279999999999973,0.4440000000000026,-4.943999999999988,-27.44,-8.994,-27.44c-5.150000000000006,0,-7,6.800000000000001,-7,11.000000000000004c0,4.850999999999992,2.299999999999997,8.900999999999996,7.051000000000002,8.900999999999996c7.174999999999997,-4.437000000000005,6.6499999999999915,-4.9510000000000005,6.434000000000012,-1.179000000000002c-3.078000000000003,-3.9939999999999998,-0.5809999999999889,-0.875,1.4159999999999968,-0.8220000000000027c0.6659999999999968,6,-3.9499999999999886,9.701,-9.850999999999999,9.701c-8.301000000000002,0.10000000000000142,-11.801000000000002,-7.850000000000001,-11.801000000000002,-15.149999999999999Z"/>
	<path fill="#4D3B15" d="M175.7803889828265,28.249c0,-8.601000000000003,4.350999999999999,-18.351,14.200000000000017,-18.351c4.350999999999971,0,7.500999999999976,2.3499999999999996,7.500999999999976,5.199999999999999c0,1.5,-1.100999999999999,4.399999999999999,-2.9499999999999886,4.399999999999999c-1.1500000000000057,0,-0.9499999999999886,-3.6999999999999993,-5,-3.6999999999999993c-5.150000000000006,0,-7.001000000000005,6.800000000000001,-7.001000000000005,11.000000000000004c0,4.850999999999999,2.3009999999999877,8.900999999999996,7.050999999999988,8.900999999999996c5.400000000000006,0,6.650000000000006,-4.9510000000000005,7.100999999999999,-4.9510000000000005c0.25,0,0.75,0.8999999999999986,0.75,2.950000000000003c0,6,-3.9499999999999886,9.701,-9.850999999999999,9.701c-8.300999999999988,0.0009999999999976694,-11.800999999999988,-7.850000000000001,-11.800999999999988,-15.150000000000002Z"/>
	
	<path fill="#4D3B15" d="M129.88477539000058,43.981220309752636c-0.23099999999999454,-2.661999999999999,-2.6500000000000057,1.0489999999999995,-2.6500000000000057,-16.551c0,-17.101,0.8009999999999877,-15.451,2.4499999999999886,-15.451h2.75c2.100999999999999,0,2.1500000000000057,0.15000000000000036,2.1500000000000057,0.75c0,1.8499999999999996,-0.5999999999999943,3.6999999999999993,-0.5999999999999943,9.150000000000002c-3.328000000000003,19.479000000000006,9.050000000000011,17.245999999999995,6.830999999999989,19.248999999999995c-4.881,3.152000000000001,-6.381,2.8530000000000015,-7.531000000000006,2.8530000000000015h-3.4000000000000057ZM127.78477539000059,4.779220309752638c0,-2.1499999999999995,1.8499999999999943,-3.4509999999999996,3.8499999999999943,-3.4509999999999996s3.850999999999999,1.3000000000000014,3.850999999999999,3.4509999999999996c-2.2189999999999657,24.559,-1.850999999999999,3.299999999999999,-3.6289999999999907,14.614999999999998s-4.736999999999995,4.397000000000002,-4.072000000000003,-14.615Z"/>
	
	
	
	<path fill="#4D3B15" d="M60.725,52.311c4.92,0,5.94,3.57,5.94,5.34c0,8.041-11.729,9.211-11.729,12.99c0,2.52,1.05,6.18,1.05,6.359   c0,0.359-0.69,0.27-0.9,0.27h-3.99c-0.75,0-1.65,0.57-1.65-10.68c0-14.818,1.56-14.279,2.07-14.279H60.725z M61.805,58.611   c0-2.07-1.8-2.76-3.6-2.76c-2.16,0-3.93,0.33-3.9,7.229c0,0.721,0.06,1.381,0.93,1.381C56.795,64.461,61.805,60.771,61.805,58.611z   "/>
	<path fill="#4D3B15" d="M69.635,77.27c-1.47,0-1.59,0.631-1.59-9.93c0-10.26,0.48-9.27,1.47-9.27h1.65c1.26,0,1.29,0.09,1.29,0.451   c0,1.109-0.36,2.219-0.36,5.488c0,7.561,1.17,12.211,1.17,12.48c0,0.959-0.9,0.779-1.59,0.779H69.635z M68.375,53.75   c0-1.289,1.11-2.068,2.31-2.068c1.2,0,2.31,0.779,2.31,2.068c0,1.291-1.11,1.98-2.31,1.98C69.485,55.73,68.375,55.041,68.375,53.75   z"/>
	<path fill="#4D3B15" d="M76.925,77.27c-0.78,0-1.5,0.15-1.5-0.84c0-7.229,7.17-13.35,7.17-14.219c0-0.57-0.99-0.6-1.35-0.6   c-2.55,0-3.15,0.779-3.69,0.779c-0.63,0-1.26-3.57-1.26-3.93c0-0.51,0.93-0.391,1.23-0.391h9.03c0.84,0,1.32-0.119,1.32,0.93   c0,0.361-0.03,2.971-0.36,3.57c-0.99,1.859-6.75,7.5-6.75,10.5c0,0.6,0.36,0.66,1.23,0.66c3.51,0,3.93-0.93,4.41-0.93   c0.54,0,1.32,3.568,1.32,4.049c0,0.451-0.9,0.42-1.17,0.42H76.925z"/>
	<path fill="#4D3B15" d="M90.935,77.27c-0.78,0-1.5,0.15-1.5-0.84c0-7.229,7.17-13.35,7.17-14.219c0-0.57-0.99-0.6-1.35-0.6   c-2.55,0-3.15,0.779-3.69,0.779c-0.63,0-1.26-3.57-1.26-3.93c0-0.51,0.93-0.391,1.23-0.391h9.03c0.84,0,1.32-0.119,1.32,0.93   c0,0.361-0.03,2.971-0.36,3.57c-0.99,1.859-6.75,7.5-6.75,10.5c0,0.6,0.36,0.66,1.23,0.66c3.51,0,3.93-0.93,4.41-0.93   c0.54,0,1.32,3.568,1.32,4.049c0,0.451-0.9,0.42-1.17,0.42H90.935z"/>
	<path fill="#4D3B15" d="M110.735,64.791c0.87-0.15,1.56-0.301,1.56-1.291c0-1.529-1.59-2.34-2.909-2.34   c-3.061,0-2.61,2.58-3.271,2.58c-0.96,0-2.01-1.17-2.01-2.459c0-2.221,2.49-3.66,5.25-3.66c0.96,0,5.069-0.031,6.6,4.17   c0.63,1.74,0.689,10.619,0.689,11.67c0,1.318,0.24,2.1,0.24,3.119c0,0.631-2.819,0.689-5.489,0.689c-7.23,0-7.74-3.719-7.74-5.52   C103.655,67.971,107.375,65.361,110.735,64.791z M112.594,70.041c0-1.051,0.181-2.311-1.26-2.311c-1.77,0-3.63,1.5-3.63,3.33   c0,1.68,1.47,2.67,3.061,2.67c1.77,0,1.829-0.9,1.829-2.371V70.041z"/>
	<path fill="#4D3B15" d="M128.464,71.9c0-5.58,5.069-7.23,5.069-8.551c0-0.93-1.949-2.76-1.949-5.488c0-1.891,1.08-6,7.47-6   c4.559,0,6.03,3.359,6.03,5.07c0,4.439-4.65,5.818-4.65,7.529c0,0.809,1.32,2.969,2.22,3.119c0.959,0,2.76-4.559,8.398-4.559   c1.68,0,3.15,1.049,3.15,2.789c0,0.689-0.57,1.92-1.26,1.92c-0.631,0-1.199-0.869-2.311-0.869c-2.398,0-5.068,3.629-5.068,4.289   s1.59,1.23,2.398,1.23c2.041,0,3.121-1.32,3.42-1.32c0.18,0,0.18,0.27,0.18,0.51c0,3.24-1.859,6.15-5.068,6.15   c-2.73,0-3.66-2.16-4.801-2.16c-1.379,0-2.429,2.16-6.719,2.16C130.714,77.721,128.464,75.291,128.464,71.9z M133.324,70.85   c0,1.5,1.471,2.49,2.73,2.49c1.08,0,2.97-0.75,2.97-1.59c0-0.48-2.46-4.32-3.21-4.32C134.764,67.43,133.324,69.41,133.324,70.85z    M140.704,57.352c0-1.291-0.779-1.951-2.069-1.951s-2.19,0.721-2.19,2.041c0,0.869,0.87,2.969,1.89,2.969   C139.114,60.41,140.704,58.521,140.704,57.352z"/>
	<path fill="#4D3B15" d="M174.004,55.91c-1.5,0-3.42,0.75-3.42,2.49c0,2.16,2.969,3,4.619,3.57c6.301,2.1,7.59,5.129,7.59,7.98   c0,3.479-2.49,7.77-8.82,7.77c-4.26,0-8.578-2.281-8.578-7.051c0-2.549,1.529-4.049,1.83-4.049c0.51,0,0,6.09,6.449,6.09   c2.279,0,4.26-0.99,4.26-2.852c0-2.189-2.701-3.09-4.439-3.629c-6.57-2.039-7.291-5.01-7.291-7.561c0-2.52,1.711-6.809,7.801-6.809   c4.35,0,7.439,2.311,7.439,3.18c0,0.84-1.561,3.57-2.4,3.57C178.293,58.611,177.123,55.91,174.004,55.91z"/>
	<path fill="#4D3B15" d="M197.793,58.07c1.26,0,1.291,6.301,1.291,9.15c0,11.01-0.781,10.5-2.941,10.5   c-3.148,0-0.75-1.68-2.459-1.68c-0.27,0-0.961,0.629-1.5,0.988c-0.541,0.33-1.23,0.691-2.221,0.691   c-2.49,0-4.799-1.561-4.799-10.141c0-0.51,0.209-9.51,1.469-9.51h2.76c0.391,0,1.201-0.15,1.201,0.451   c0,0.449-1.381,3.449-1.381,9.119c0,1.68-0.029,6.24,2.551,6.24c0.99,0,3.27-0.301,3.27-6.75c0-3.6-1.051-8.221-1.051-8.699   c0-0.391,0.691-0.361,1.021-0.361H197.793z"/>
	<path fill="#4D3B15" d="M205.984,51.682c0.359,0,1.08,0,1.08,0.66c0,0.238-0.9,3.238-0.9,5.01c0,0.479,0.09,0.959,0.66,0.959   c0.33,0,0.75-0.15,1.23-0.33c0.51-0.15,1.109-0.359,1.74-0.359c2.549,0,6.119,2.279,6.119,8.609c0,3.449-0.871,6.209-3.061,8.699   c-0.869,1.02-2.459,2.34-4.74,2.34h-5.309c-1.051,0-0.93-10.049-0.93-10.738c0-1.41-0.121-14.85,1.229-14.85H205.984z    M211.863,66.59c0-4.92-2.129-6.119-3.389-6.119c-2.131,0-2.551,1.051-2.551,5.43c0,6.48,1.529,6.359,2.311,6.359   C211.174,72.26,211.863,68.811,211.863,66.59z"/>
	<path fill="#4D3B15" d="M217.713,72.35c0-1.41,0.721-3.209,0.961-3.209c0.15,0,0.9,4.529,5.16,4.529c1.229,0,2.67-0.629,2.67-2.16   c0-3.09-8.1-2.279-8.1-8.25c0-3.658,2.939-5.639,6.18-5.639c3.748,0,5.818,2.25,5.818,2.85c0,0.57-1.68,3-2.369,3   c-0.779,0-0.961-2.311-3.721-2.311c-0.93,0-2.189,0.42-2.189,1.32c0,3.09,8.76,3.029,8.76,9.119c0,3.9-3.24,6.121-6.84,6.121   C220.863,77.721,217.713,75.859,217.713,72.35z"/>
	<circle fill="#A51E22" cx="35" cy="64.2" r="5"/>
	<circle fill="#FFFFFF" cx="20" cy="64.2" r="5"/>
	<circle fill="#437738" cx="5" cy="64.2" r="5"/>
	<circle fill="#A51E22" cx="275" cy="64.2" r="5"/>
	<circle fill="#FFFFFF" cx="260" cy="64.2" r="5"/>
	<circle fill="#437738" cx="245" cy="64.2" r="5"/>
<path fill="#4D3B15" d="M145.16802753731417,28.692740103250877c0,-8.601000000000006,4.349999999999994,-18.351,14.200999999999993,-18.351c4.349999999999994,0,7.5,2.3499999999999943,7.5,5.199999999999996c0,1.5,10.659999999999997,27.253000000000007,1.0440000000000111,28.14c-3.4279999999999973,0.4440000000000026,-4.943999999999988,-27.439999999999998,-8.994,-27.439999999999998c-5.150000000000006,0,-7,6.799999999999997,-7,11c0,4.850999999999992,2.299999999999983,8.900999999999996,7.050999999999988,8.900999999999996c7.175000000000011,-4.437000000000005,6.650000000000006,-4.950999999999986,6.434000000000026,-1.179000000000002c-3.078000000000003,-3.9939999999999998,-0.5809999999999889,-0.875,1.4159999999999968,-0.8220000000000027c0.6659999999999968,6,-3.9499999999999886,9.701,-9.850999999999999,9.701c-8.301000000000016,0.10000000000000142,-11.801000000000016,-7.850000000000001,-11.801000000000016,-15.149999999999999Z" id="e1_path"/></g>
<g id="logo_1a_-_outline" display="none">
	<text transform="matrix(1 0 0 1 12.4268 42.6504)" display="inline" font-family="'HoboStd'" font-size="50">Pinocchio’s</text>
	<text transform="matrix(1 0 0 1 47.9458 77.2695)" display="inline" font-family="'HoboStd'" font-size="30">Pizza &amp; Subs</text>
	<circle display="inline" cx="35" cy="64.2" r="5"/>
	<circle display="inline" cx="20" cy="64.2" r="5"/>
	<circle display="inline" cx="5" cy="64.2" r="5"/>
	<circle display="inline" cx="275" cy="64.2" r="5"/>
	<circle display="inline" cx="260" cy="64.2" r="5"/>
	<circle display="inline" cx="245" cy="64.2" r="5"/>
</g>
</svg>